<mxfile host="Electron" agent="Mozilla/5.0 (Windows NT 10.0; Win64; x64) AppleWebKit/537.36 (KHTML, like Gecko) draw.io/26.2.15 Chrome/134.0.6998.205 Electron/35.2.1 Safari/537.36" version="26.2.15">
  <diagram name="Page-1" id="PWRlCF0JaydEVSz9v9U_">
    <mxGraphModel dx="1826" dy="841" grid="1" gridSize="10" guides="1" tooltips="1" connect="1" arrows="1" fold="1" page="0" pageScale="1" pageWidth="850" pageHeight="1100" math="0" shadow="0">
      <root>
        <mxCell id="0" />
        <mxCell id="1" parent="0" />
        <mxCell id="rvvFlm47mMBsTaRFepqp-52" value="" style="rounded=0;whiteSpace=wrap;html=1;" parent="1" vertex="1">
          <mxGeometry x="-30" y="500" width="1270" height="160" as="geometry" />
        </mxCell>
        <mxCell id="rvvFlm47mMBsTaRFepqp-17" value="" style="rounded=0;whiteSpace=wrap;html=1;" parent="1" vertex="1">
          <mxGeometry x="150" y="30" width="1090" height="380" as="geometry" />
        </mxCell>
        <mxCell id="rvvFlm47mMBsTaRFepqp-18" value="Logging" style="rounded=0;whiteSpace=wrap;html=1;fillColor=#f5f5f5;strokeColor=#000000;gradientColor=#b3b3b3;" parent="1" vertex="1">
          <mxGeometry x="150" width="1090" height="30" as="geometry" />
        </mxCell>
        <mxCell id="rvvFlm47mMBsTaRFepqp-35" value="" style="rounded=0;whiteSpace=wrap;html=1;" parent="1" vertex="1">
          <mxGeometry x="175" y="90" width="855" height="300" as="geometry" />
        </mxCell>
        <mxCell id="rvvFlm47mMBsTaRFepqp-36" value="Error Handling / Recovery" style="rounded=0;whiteSpace=wrap;html=1;fillColor=#f8cecc;strokeColor=#000000;gradientColor=#ea6b66;" parent="1" vertex="1">
          <mxGeometry x="175" y="60" width="855" height="30" as="geometry" />
        </mxCell>
        <mxCell id="rvvFlm47mMBsTaRFepqp-15" value="" style="rounded=0;whiteSpace=wrap;html=1;" parent="1" vertex="1">
          <mxGeometry x="200" y="190" width="370" height="120" as="geometry" />
        </mxCell>
        <mxCell id="rvvFlm47mMBsTaRFepqp-19" style="edgeStyle=orthogonalEdgeStyle;rounded=0;orthogonalLoop=1;jettySize=auto;html=1;entryX=0;entryY=0.5;entryDx=0;entryDy=0;" parent="1" source="rvvFlm47mMBsTaRFepqp-2" target="rvvFlm47mMBsTaRFepqp-10" edge="1">
          <mxGeometry relative="1" as="geometry" />
        </mxCell>
        <mxCell id="rvvFlm47mMBsTaRFepqp-2" value="&lt;div&gt;Files&lt;/div&gt;&lt;div&gt;yyyy-MM-dd/hh&lt;/div&gt;" style="rounded=0;whiteSpace=wrap;html=1;" parent="1" vertex="1">
          <mxGeometry y="220" width="120" height="60" as="geometry" />
        </mxCell>
        <mxCell id="rvvFlm47mMBsTaRFepqp-27" style="edgeStyle=orthogonalEdgeStyle;rounded=0;orthogonalLoop=1;jettySize=auto;html=1;entryX=0;entryY=0.5;entryDx=0;entryDy=0;" parent="1" source="rvvFlm47mMBsTaRFepqp-4" target="rvvFlm47mMBsTaRFepqp-26" edge="1">
          <mxGeometry relative="1" as="geometry" />
        </mxCell>
        <mxCell id="rvvFlm47mMBsTaRFepqp-4" value="" style="rounded=0;whiteSpace=wrap;html=1;" parent="1" vertex="1">
          <mxGeometry x="670" y="130" width="170" height="240" as="geometry" />
        </mxCell>
        <mxCell id="rvvFlm47mMBsTaRFepqp-5" value="Transformers" style="rounded=0;whiteSpace=wrap;html=1;fillColor=#dae8fc;strokeColor=#000000;gradientColor=#7ea6e0;" parent="1" vertex="1">
          <mxGeometry x="670" y="100" width="170" height="30" as="geometry" />
        </mxCell>
        <mxCell id="rvvFlm47mMBsTaRFepqp-7" value="Customers" style="rounded=0;whiteSpace=wrap;html=1;" parent="1" vertex="1">
          <mxGeometry x="695" y="145" width="120" height="60" as="geometry" />
        </mxCell>
        <mxCell id="rvvFlm47mMBsTaRFepqp-30" style="edgeStyle=orthogonalEdgeStyle;rounded=0;orthogonalLoop=1;jettySize=auto;html=1;entryX=0;entryY=0.5;entryDx=0;entryDy=0;" parent="1" source="rvvFlm47mMBsTaRFepqp-8" target="rvvFlm47mMBsTaRFepqp-29" edge="1">
          <mxGeometry relative="1" as="geometry" />
        </mxCell>
        <mxCell id="rvvFlm47mMBsTaRFepqp-8" value="Loans" style="rounded=0;whiteSpace=wrap;html=1;" parent="1" vertex="1">
          <mxGeometry x="695" y="290" width="120" height="60" as="geometry" />
        </mxCell>
        <mxCell id="rvvFlm47mMBsTaRFepqp-9" value="" style="endArrow=none;dashed=1;html=1;dashPattern=1 3;strokeWidth=5;rounded=0;entryX=0.5;entryY=1;entryDx=0;entryDy=0;exitX=0.5;exitY=0;exitDx=0;exitDy=0;targetPerimeterSpacing=4;sourcePerimeterSpacing=4;startSize=13;endSize=7;jumpSize=10;jumpStyle=none;" parent="1" source="rvvFlm47mMBsTaRFepqp-8" target="rvvFlm47mMBsTaRFepqp-7" edge="1">
          <mxGeometry width="50" height="50" relative="1" as="geometry">
            <mxPoint x="950" y="310" as="sourcePoint" />
            <mxPoint x="1000" y="260" as="targetPoint" />
          </mxGeometry>
        </mxCell>
        <mxCell id="rvvFlm47mMBsTaRFepqp-13" value="" style="edgeStyle=orthogonalEdgeStyle;rounded=0;orthogonalLoop=1;jettySize=auto;html=1;" parent="1" source="rvvFlm47mMBsTaRFepqp-10" target="rvvFlm47mMBsTaRFepqp-11" edge="1">
          <mxGeometry relative="1" as="geometry" />
        </mxCell>
        <mxCell id="rvvFlm47mMBsTaRFepqp-10" value="Check in State Store" style="rounded=0;whiteSpace=wrap;html=1;" parent="1" vertex="1">
          <mxGeometry x="230" y="220" width="140" height="60" as="geometry" />
        </mxCell>
        <mxCell id="rvvFlm47mMBsTaRFepqp-14" value="" style="edgeStyle=orthogonalEdgeStyle;rounded=0;orthogonalLoop=1;jettySize=auto;html=1;" parent="1" source="rvvFlm47mMBsTaRFepqp-11" target="rvvFlm47mMBsTaRFepqp-4" edge="1">
          <mxGeometry relative="1" as="geometry" />
        </mxCell>
        <mxCell id="rvvFlm47mMBsTaRFepqp-32" style="edgeStyle=orthogonalEdgeStyle;rounded=0;orthogonalLoop=1;jettySize=auto;html=1;entryX=0.5;entryY=0;entryDx=0;entryDy=0;" parent="1" source="rvvFlm47mMBsTaRFepqp-11" target="rvvFlm47mMBsTaRFepqp-21" edge="1">
          <mxGeometry relative="1" as="geometry" />
        </mxCell>
        <mxCell id="rvvFlm47mMBsTaRFepqp-11" value="Schema Validation" style="rounded=0;whiteSpace=wrap;html=1;" parent="1" vertex="1">
          <mxGeometry x="400" y="220" width="140" height="60" as="geometry" />
        </mxCell>
        <mxCell id="rvvFlm47mMBsTaRFepqp-16" value="Prechecks &amp;amp; Validation" style="rounded=0;whiteSpace=wrap;html=1;fillColor=#d5e8d4;strokeColor=#000000;gradientColor=#97d077;" parent="1" vertex="1">
          <mxGeometry x="200" y="160" width="370" height="30" as="geometry" />
        </mxCell>
        <mxCell id="rvvFlm47mMBsTaRFepqp-23" style="edgeStyle=orthogonalEdgeStyle;rounded=0;orthogonalLoop=1;jettySize=auto;html=1;entryX=0;entryY=0.5;entryDx=0;entryDy=0;" parent="1" source="rvvFlm47mMBsTaRFepqp-21" target="rvvFlm47mMBsTaRFepqp-8" edge="1">
          <mxGeometry relative="1" as="geometry" />
        </mxCell>
        <mxCell id="rvvFlm47mMBsTaRFepqp-21" value="Encrypt" style="rounded=0;whiteSpace=wrap;html=1;" parent="1" vertex="1">
          <mxGeometry x="590" y="305" width="60" height="30" as="geometry" />
        </mxCell>
        <mxCell id="rvvFlm47mMBsTaRFepqp-43" style="edgeStyle=orthogonalEdgeStyle;rounded=0;orthogonalLoop=1;jettySize=auto;html=1;entryX=0;entryY=0.5;entryDx=0;entryDy=0;" parent="1" source="rvvFlm47mMBsTaRFepqp-26" target="rvvFlm47mMBsTaRFepqp-38" edge="1">
          <mxGeometry relative="1" as="geometry" />
        </mxCell>
        <mxCell id="rvvFlm47mMBsTaRFepqp-26" value="Save updated files" style="rounded=0;whiteSpace=wrap;html=1;" parent="1" vertex="1">
          <mxGeometry x="870" y="220" width="140" height="60" as="geometry" />
        </mxCell>
        <mxCell id="rvvFlm47mMBsTaRFepqp-31" value="" style="edgeStyle=orthogonalEdgeStyle;rounded=0;orthogonalLoop=1;jettySize=auto;html=1;" parent="1" source="rvvFlm47mMBsTaRFepqp-29" target="rvvFlm47mMBsTaRFepqp-26" edge="1">
          <mxGeometry relative="1" as="geometry" />
        </mxCell>
        <mxCell id="rvvFlm47mMBsTaRFepqp-29" value="Decrypt" style="rounded=0;whiteSpace=wrap;html=1;" parent="1" vertex="1">
          <mxGeometry x="910" y="305" width="60" height="30" as="geometry" />
        </mxCell>
        <mxCell id="rvvFlm47mMBsTaRFepqp-33" value="Send email if invalid" style="rounded=0;whiteSpace=wrap;html=1;" parent="1" vertex="1">
          <mxGeometry x="400" y="330" width="140" height="40" as="geometry" />
        </mxCell>
        <mxCell id="rvvFlm47mMBsTaRFepqp-34" value="" style="endArrow=classic;html=1;rounded=0;exitX=0.5;exitY=1;exitDx=0;exitDy=0;entryX=0.5;entryY=0;entryDx=0;entryDy=0;" parent="1" source="rvvFlm47mMBsTaRFepqp-11" target="rvvFlm47mMBsTaRFepqp-33" edge="1">
          <mxGeometry width="50" height="50" relative="1" as="geometry">
            <mxPoint x="490" y="560" as="sourcePoint" />
            <mxPoint x="540" y="510" as="targetPoint" />
          </mxGeometry>
        </mxCell>
        <mxCell id="rvvFlm47mMBsTaRFepqp-38" value="" style="rounded=0;whiteSpace=wrap;html=1;" parent="1" vertex="1">
          <mxGeometry x="1060" y="147.5" width="160" height="205" as="geometry" />
        </mxCell>
        <mxCell id="rvvFlm47mMBsTaRFepqp-39" value="Analysis" style="rounded=0;whiteSpace=wrap;html=1;fillColor=#fff2cc;strokeColor=#000000;gradientColor=#ffd966;" parent="1" vertex="1">
          <mxGeometry x="1060" y="117.5" width="160" height="30" as="geometry" />
        </mxCell>
        <mxCell id="rvvFlm47mMBsTaRFepqp-40" value="Churn Analysis" style="rounded=0;whiteSpace=wrap;html=1;" parent="1" vertex="1">
          <mxGeometry x="1080" y="170" width="120" height="40" as="geometry" />
        </mxCell>
        <mxCell id="rvvFlm47mMBsTaRFepqp-41" value="Behavior Trend Analysis" style="rounded=0;whiteSpace=wrap;html=1;" parent="1" vertex="1">
          <mxGeometry x="1080" y="230" width="120" height="40" as="geometry" />
        </mxCell>
        <mxCell id="rvvFlm47mMBsTaRFepqp-42" value="Revenue Analysis" style="rounded=0;whiteSpace=wrap;html=1;" parent="1" vertex="1">
          <mxGeometry x="1080" y="290" width="120" height="40" as="geometry" />
        </mxCell>
        <mxCell id="rvvFlm47mMBsTaRFepqp-44" value="Input Files" style="rounded=0;whiteSpace=wrap;html=1;fillColor=#e6d0de;strokeColor=#000000;gradientColor=#d5739d;" parent="1" vertex="1">
          <mxGeometry y="190" width="120" height="30" as="geometry" />
        </mxCell>
        <mxCell id="rvvFlm47mMBsTaRFepqp-47" value="&lt;div&gt;Save as &lt;b&gt;Parquet Format&lt;/b&gt;&lt;/div&gt;&lt;div&gt;Upload to &lt;b&gt;HDFS&lt;/b&gt;&lt;/div&gt;" style="rounded=0;whiteSpace=wrap;html=1;" parent="1" vertex="1">
          <mxGeometry x="870" y="130" width="140" height="60" as="geometry" />
        </mxCell>
        <mxCell id="rvvFlm47mMBsTaRFepqp-48" style="edgeStyle=orthogonalEdgeStyle;rounded=0;orthogonalLoop=1;jettySize=auto;html=1;entryX=1;entryY=0.124;entryDx=0;entryDy=0;entryPerimeter=0;startArrow=classic;startFill=1;endArrow=none;" parent="1" source="rvvFlm47mMBsTaRFepqp-47" target="rvvFlm47mMBsTaRFepqp-4" edge="1">
          <mxGeometry relative="1" as="geometry" />
        </mxCell>
        <mxCell id="rvvFlm47mMBsTaRFepqp-51" value="Listen to incoming files" style="rounded=0;whiteSpace=wrap;html=1;fillColor=#647687;fontColor=#ffffff;strokeColor=#314354;" parent="1" vertex="1">
          <mxGeometry y="510" width="120" height="140" as="geometry" />
        </mxCell>
        <mxCell id="rvvFlm47mMBsTaRFepqp-53" value="Steps" style="rounded=0;whiteSpace=wrap;html=1;fillColor=#f5f5f5;gradientColor=#b3b3b3;strokeColor=#666666;" parent="1" vertex="1">
          <mxGeometry x="-30" y="470" width="1270" height="30" as="geometry" />
        </mxCell>
        <mxCell id="rvvFlm47mMBsTaRFepqp-55" value="Read status of incoming files" style="rounded=0;whiteSpace=wrap;html=1;fillColor=#647687;fontColor=#ffffff;strokeColor=#314354;" parent="1" vertex="1">
          <mxGeometry x="230" y="510" width="140" height="140" as="geometry" />
        </mxCell>
        <mxCell id="rvvFlm47mMBsTaRFepqp-56" value="Data Validation" style="rounded=0;whiteSpace=wrap;html=1;fillColor=#647687;fontColor=#ffffff;strokeColor=#314354;" parent="1" vertex="1">
          <mxGeometry x="400" y="560" width="140" height="40" as="geometry" />
        </mxCell>
        <mxCell id="rvvFlm47mMBsTaRFepqp-57" value="Data Extraction" style="rounded=0;whiteSpace=wrap;html=1;fillColor=#647687;fontColor=#ffffff;strokeColor=#314354;" parent="1" vertex="1">
          <mxGeometry x="400" y="510" width="140" height="40" as="geometry" />
        </mxCell>
        <mxCell id="rvvFlm47mMBsTaRFepqp-58" value="Encrypt" style="rounded=0;whiteSpace=wrap;html=1;fillColor=#647687;fontColor=#ffffff;strokeColor=#314354;" parent="1" vertex="1">
          <mxGeometry x="590" y="510" width="60" height="140" as="geometry" />
        </mxCell>
        <mxCell id="rvvFlm47mMBsTaRFepqp-59" value="Decrypt" style="rounded=0;whiteSpace=wrap;html=1;fillColor=#647687;fontColor=#ffffff;strokeColor=#314354;" parent="1" vertex="1">
          <mxGeometry x="870" y="510" width="60" height="140" as="geometry" />
        </mxCell>
        <mxCell id="rvvFlm47mMBsTaRFepqp-60" value="customer_profiles" style="rounded=0;whiteSpace=wrap;html=1;fillColor=#647687;fontColor=#ffffff;strokeColor=#314354;" parent="1" vertex="1">
          <mxGeometry x="695" y="510" width="120" height="20" as="geometry" />
        </mxCell>
        <mxCell id="rvvFlm47mMBsTaRFepqp-61" value="support_tickets" style="rounded=0;whiteSpace=wrap;html=1;fillColor=#647687;fontColor=#ffffff;strokeColor=#314354;" parent="1" vertex="1">
          <mxGeometry x="695" y="540" width="120" height="20" as="geometry" />
        </mxCell>
        <mxCell id="rvvFlm47mMBsTaRFepqp-62" value="transactions" style="rounded=0;whiteSpace=wrap;html=1;fillColor=#647687;fontColor=#ffffff;strokeColor=#314354;" parent="1" vertex="1">
          <mxGeometry x="695" y="570" width="120" height="20" as="geometry" />
        </mxCell>
        <mxCell id="rvvFlm47mMBsTaRFepqp-63" value="credit_cards_billing" style="rounded=0;whiteSpace=wrap;html=1;fillColor=#647687;fontColor=#ffffff;strokeColor=#314354;" parent="1" vertex="1">
          <mxGeometry x="695" y="600" width="120" height="20" as="geometry" />
        </mxCell>
        <mxCell id="rvvFlm47mMBsTaRFepqp-64" value="Loans" style="rounded=0;whiteSpace=wrap;html=1;fillColor=#647687;fontColor=#ffffff;strokeColor=#314354;" parent="1" vertex="1">
          <mxGeometry x="695" y="630" width="120" height="20" as="geometry" />
        </mxCell>
        <mxCell id="rvvFlm47mMBsTaRFepqp-65" value="&lt;div&gt;Parquet&lt;/div&gt;&lt;div&gt;HDFS&lt;/div&gt;" style="rounded=0;whiteSpace=wrap;html=1;" parent="1" vertex="1">
          <mxGeometry x="940" y="510" width="60" height="140" as="geometry" />
        </mxCell>
        <mxCell id="rvvFlm47mMBsTaRFepqp-66" value="&lt;div&gt;Analysis&lt;/div&gt;&lt;div&gt;Report&lt;/div&gt;" style="rounded=0;whiteSpace=wrap;html=1;" parent="1" vertex="1">
          <mxGeometry x="1080" y="510" width="130" height="140" as="geometry" />
        </mxCell>
        <mxCell id="5Sz_-H0BnVoV-E5kJ6Kc-1" value="Send email if invalid" style="rounded=0;whiteSpace=wrap;html=1;fillColor=#647687;fontColor=#ffffff;strokeColor=#314354;" parent="1" vertex="1">
          <mxGeometry x="400" y="610" width="140" height="40" as="geometry" />
        </mxCell>
      </root>
    </mxGraphModel>
  </diagram>
</mxfile>
